<mxfile host="www.draw.io" modified="2020-02-02T16:27:20.161Z" agent="Mozilla/5.0 (Windows NT 10.0; Win64; x64) AppleWebKit/537.36 (KHTML, like Gecko) Chrome/79.0.3945.130 Safari/537.36" etag="uhdJImvTBHr5umF8uZlI" version="12.6.4" type="github">
  <diagram id="-xXsg5XVD0jqa116iq1H" name="Page-1">
    <mxGraphModel dx="934" dy="515" grid="1" gridSize="10" guides="1" tooltips="1" connect="1" arrows="1" fold="1" page="1" pageScale="1" pageWidth="850" pageHeight="1100" math="0" shadow="0">
      <root>
        <mxCell id="0"/>
        <mxCell id="1" parent="0"/>
        <mxCell id="SSu6BVQOUmVmRUGiHWDf-1" value="" style="rounded=0;whiteSpace=wrap;html=1;" vertex="1" parent="1">
          <mxGeometry x="20" y="20" width="810" height="640" as="geometry"/>
        </mxCell>
        <mxCell id="SSu6BVQOUmVmRUGiHWDf-2" value="" style="rounded=0;whiteSpace=wrap;html=1;strokeColor=#666666;" vertex="1" parent="1">
          <mxGeometry x="270" y="30" width="310" height="30" as="geometry"/>
        </mxCell>
        <mxCell id="SSu6BVQOUmVmRUGiHWDf-3" value="&lt;font color=&quot;#bdbdbd&quot;&gt;Search&lt;/font&gt;" style="text;html=1;strokeColor=none;fillColor=none;align=center;verticalAlign=middle;whiteSpace=wrap;rounded=0;" vertex="1" parent="1">
          <mxGeometry x="270" y="35" width="50" height="20" as="geometry"/>
        </mxCell>
        <mxCell id="SSu6BVQOUmVmRUGiHWDf-4" value="" style="rounded=0;whiteSpace=wrap;html=1;strokeColor=#666666;fillColor=#BDBDBD;" vertex="1" parent="1">
          <mxGeometry x="580" y="30" width="50" height="30" as="geometry"/>
        </mxCell>
        <mxCell id="SSu6BVQOUmVmRUGiHWDf-23" value="&lt;font color=&quot;#ffffff&quot;&gt;&lt;b&gt;Go&lt;/b&gt;&lt;/font&gt;" style="text;html=1;strokeColor=none;fillColor=none;align=center;verticalAlign=middle;whiteSpace=wrap;rounded=0;" vertex="1" parent="1">
          <mxGeometry x="585" y="35" width="40" height="20" as="geometry"/>
        </mxCell>
        <mxCell id="SSu6BVQOUmVmRUGiHWDf-24" value="" style="rounded=0;whiteSpace=wrap;html=1;strokeColor=#666666;fillColor=#FFFFFF;" vertex="1" parent="1">
          <mxGeometry x="720" y="30" width="90" height="30" as="geometry"/>
        </mxCell>
        <mxCell id="SSu6BVQOUmVmRUGiHWDf-25" value="&lt;font color=&quot;#666666&quot;&gt;&#39;Username&#39;&lt;/font&gt;" style="text;html=1;strokeColor=none;fillColor=none;align=center;verticalAlign=middle;whiteSpace=wrap;rounded=0;" vertex="1" parent="1">
          <mxGeometry x="720" y="35" width="90" height="20" as="geometry"/>
        </mxCell>
        <mxCell id="SSu6BVQOUmVmRUGiHWDf-32" value="" style="line;strokeWidth=2;html=1;rounded=0;fillColor=#FFFFFF;strokeColor=#666666;" vertex="1" parent="1">
          <mxGeometry x="40" y="35" width="20" height="10" as="geometry"/>
        </mxCell>
        <mxCell id="SSu6BVQOUmVmRUGiHWDf-33" value="" style="line;strokeWidth=2;html=1;rounded=0;fillColor=#FFFFFF;strokeColor=#666666;" vertex="1" parent="1">
          <mxGeometry x="40" y="40" width="20" height="10" as="geometry"/>
        </mxCell>
        <mxCell id="SSu6BVQOUmVmRUGiHWDf-34" value="" style="line;strokeWidth=2;html=1;rounded=0;fillColor=#FFFFFF;strokeColor=#666666;" vertex="1" parent="1">
          <mxGeometry x="40" y="45" width="20" height="10" as="geometry"/>
        </mxCell>
        <mxCell id="SSu6BVQOUmVmRUGiHWDf-44" value="&lt;font face=&quot;Tahoma&quot; color=&quot;#666666&quot; style=&quot;font-size: 16px&quot;&gt;MeTube&lt;/font&gt;" style="text;html=1;strokeColor=none;fillColor=none;align=center;verticalAlign=middle;whiteSpace=wrap;rounded=0;strokeWidth=11;" vertex="1" parent="1">
          <mxGeometry x="70" y="35" width="80" height="20" as="geometry"/>
        </mxCell>
        <mxCell id="SSu6BVQOUmVmRUGiHWDf-46" value="" style="rounded=0;whiteSpace=wrap;html=1;strokeColor=#F5F5F5;strokeWidth=1;fillColor=#F5F5F5;" vertex="1" parent="1">
          <mxGeometry x="80" y="70" width="740" height="580" as="geometry"/>
        </mxCell>
        <mxCell id="SSu6BVQOUmVmRUGiHWDf-47" value="" style="whiteSpace=wrap;html=1;aspect=fixed;rounded=0;strokeColor=#666666;strokeWidth=1;fillColor=#FFFFFF;" vertex="1" parent="1">
          <mxGeometry x="35" y="70" width="30" height="30" as="geometry"/>
        </mxCell>
        <mxCell id="SSu6BVQOUmVmRUGiHWDf-49" value="" style="shape=image;imageAspect=0;aspect=fixed;verticalLabelPosition=bottom;verticalAlign=top;rounded=0;strokeColor=#666666;strokeWidth=1;fillColor=#FFFFFF;image=data:image/png,iVBORw0KGgoAAAANSUhEUgAAAgAAAAIACAYAAAD0eNT6AAAABHNCSVQICAgIfAhkiAAAAAlwSFlzAAALEwAACxMBAJqcGAAAGZVJREFUeJzt3Xus7Wld3/H3OUxHZmAugDNDQUQxgGCVGZEiIAgo8dqmlYI1NQaoJqaXRG2MtY1ptVZjUhq1SVNSRCoWrQh4AYRhgNhWtIoZUMplbIVRwRlQZwatAs5w+sfa2znnzLnsy1rrWWs9r1fyhLDZZ+/vXpu1P5/1rN/lRMAue0z1pOoLq8+pHlk9tHpAdVl1v+oT1ceqj1S3VrdUv1X9WvW+9Y8MABzWyeorqpdUv1+dOub6cPXS6itblAUAYINcU31vywn9C5WB762uW9PPBACcxzXVj1R/3uqC/+z1F3vf89o1/HwAwGkuqb6zuqv1Bf/Z62N7M1yy4p8VAGhxQN/NjQv+s9e7qhtW+hMDwMROVv+8+mTjQ//s9cnqu6oTK/vpAWBCD67e2Pigv9j6pb1ZAYBj+vzqdxsf7gddv1t93koeCQCYxFe1ONhudKgfdt3V4noEAMAhvai6u/FhftT1l9ULlv2gAMAu+67GB/iy1ncu+bEBgJ30Q40P7WWvH1jqIwQAO+RE9R8bH9arWj+a0wQB4Awnq5c1PqRXvf7z3s8KANO7pHpl48N5XesVubMgAJO7tHp140N53etV1V9bwuMHAFvn/tXrGx/Go9br9h4DAJjG/duOS/uuer0xJQCASQh/JQCAyQh/JQCAyQh/JQCAydy/elPjQ3bTlxIAwM4Q/koAAJMR/koAAJMR/sdbb0oJAGDLCH8lAIDJCH8lAIDJCH8lAIDJ3L+6sfFhuatLCQBg4wj/9awbUwIA2BDCXwmArXNi9ACw5e5f/UL1nNGDTObN1d+uPj56kA338Oqp1Q3V46rPqq6rrq4+rTo5bLKFT1WfqO6sbqs+WL23url6e/XhYZMBXMBleeU/eifgsov+lubzlOrfV+9v/O/ouOt91b+rnrzURwjgGIT/ZiwlYOHK6jvajdA/33pf9W3VFUt6zAAOTfhv1pq5BFxVfV91V+N/D+tad1T/KkUAWDPhv5lrthJwovqW6iONf+xHrduqF+VYNmANhP9mrzc3Rwn47OqXG/94b8p6a/XIYz2iABdwWYuAGf3Hzrrw2vUS8PzqY41/nDdt3Vl93TEeV4BzEv7btXaxBJyofrDxj+2mr3+TtwSAJRH+27l2qQRcUr2y8Y/ptqxX7D1mAEcm/Ld73dT2l4BLqtc0/rHctvWzKQHAEQn/3VjbXAJO5JX/cdYr8nYAcEiXtQiO0X/ArOWsbS0B3vM//vr+Qz/qwLSE/26ubSsBz2/8Y7Yry9kBwEUJ/91e21ICHpVT/Za57sx1AoALEP5zrLe02SXgRC7ys4r11hwPAJyD8J9rbXIJ+JbGPz67ul54iN8DMAHhP+faxBJwVXNf23/V67bcQOgMJ0cPAANdVr2u+rLRg7B2z27xu7989CCn+WfVNaOH2GHXVd8+eohN4j0RZrUf/s8ePQhDvbX6W9WfD57jyur39/6T1bmz+szqT0cPsgnsADAj4c++Z1e/2PidgG9O+K/D1S1uIQxM6LIW7/+Ofj/S2qz1lsaWgFvOM5e1/PWeA/5OgB1yecLfOv96a2NKwFOOOK919PWkA/1mdpy3AJjF5S22em37cz7PasyBgc9b8/fDY14pAMxB+HNQI0rA16zxe7HgMc9ZAOw+4c9RvK362lZ/dsDDqz9Y8ffg3B5a3T56iJHsALDLhD9Hta6dgKeu+Otzfk8bPcBoCgC7SvhzXM+qXt9qS8ANK/zaXNj1owcYTQFgF12e8/xZjme22hLwuBV9XS5u+sdeAWDX7If/s0YPws54ZqsrAZ+1gq/JwXz26AFGUwDYJcKfVXlmqykB1y3563Fw0z/2CgC7Qvizas+s3tByS8DVS/xaHM6DRg8wmtMA2QXCn3X65eqrW84pgvfkhdgo91SXjB5iJAWAbSf8GWFZJeDUEmbh6KbOQM2TbXZ5i/dlhT/r9qUt3g54wOhB4KgUALbVfvg/c/AczOtLW/x/UAlgKykAbCPhz6ZQAthaCgDbRvizaZQAtpICwDYR/mwqxwSwdRQAtsXlLf7APnPwHHA+z0gJYIsoAGyD/fD/0tGDwEUoAWwNBYBNJ/zZNkoAW0EBYJMJf7aVEsDGUwDYVA9I+LPdnlH9UkoAG0oBYBM9oMXR/sKfbff0lAA2lALAphH+7BolgI2kALBJhD+7ar8EPHD0ILBPAWBTCH923dNbHNeiBLARFAA2gQP+mIUSwMZQABhtP/yfMXoQWBMlgI1wYvQATE34M7P/WX3J6CEmN3UGTv3DM5TwB0abOgO9BcAIwh9gMAWAdRP+ABvgktEDMJUHtDgX+umjBwGYnR0A1kX4A2wQBYB1EP4AG0YBYNWEP8AGUgBYpQcm/AE2kgLAqjywxdH+wh9gAykArILwB9hwCgDLJvwBtoACwDIJf4AtoQCwLMIfYIu4EiDLsH+0vzubAWwJOwAcl/AH2EIKAMch/AG2lALAUQl/gC2mAHAUwh9gyykAHJbwB9gBzgLgMB5YvbF62uhBADgeOwAclPAH2CEKAAch/AF2jALAxQh/gB2kAHAhVyT8AXaSAsD5XNHiaH/hD7CDFADORfgD7DgFgLMJf4AJKACcTvgDTMKFgNi3f8DfU0cPAsDq2QGghD/AdBQAhD/AhBSAuQl/gEkpAPMS/gATUwDmJPwBJucsgPlcUb2pesroQQAYxw7AXIQ/AJUCMBPhD8BfUQDmIPwBOIMCsPuuTPgDcBYFYLdd2eJof+EPwBkUgN0l/AE4LwVgNwl/AC5IAdg9wh+Ai1IAdovwB+BAXAlwd+wf7f/FowcBYPPZAdgNwh+AQ1EAtp/wB+DQFIDtJvwBOBIFYHsJfwCOTAHYTsIfgGNxFsD2ubK6sXry6EEA2F52ALaL8AdgKRSA7SH8AVgaBWA7CH8AlkoB2HxXJfwBWDIFYLNd1eJof+EPwFIpAJtL+AOwMgrAZhL+AKyUArB5hD8AK+dCQJtl/4C/vzl6EAB2mx2AzSH8AVgbBWAzCH8A1koBGE/4A7B2CsBYwh+AIRSAcYQ/AMM4C2CMq6o3V08aPQgAc7IDsH7CH4DhFID1Ev4AbAQFYH2EPwAbQwFYj6sT/gBsEAVg9a5ucbS/8AdgYygAqyX8AdhICsDqCH8ANpYCsBrCH4CN5kJAy7d/wN8XjR4EAM7HDsByCX8AtoICsDzCH4CtoQAsh/AHYKsoAMcn/AHYOgrA8Qh/ALaSAnB0wh+AreU0wKO5urqpeuLoQQDgKOwAHJ7wB2DrKQCHI/wB2AkKwMEJfwB2hgJwMA9K+AOwQxSAi3tQi6P9hT8AO0MBuDDhD8BOUgDOT/gDsLMUgHMT/gDsNBcCuq/9A/6+cPQgALAqdgDOJPwBmIICcC/hD8A0FIAF4Q/AVBQA4Q/AhGYvAA9O+APM6sGjBxhp5gIg/AHmdlMTl4ATowcYZD/8bxg9CABD3Vx9efUnowdZtxkLgPAH4HRTloDZCoDwB+BcpisBMxUA4Q/AhUxVAmYpAMIfgIOYpgTMUACEPwCHMUUJ2PUCIPwBOIqdLwG7XACEPwDHsdMlYFcLgPAHYBl2tgTsYgF4cPWW6vrRgwCwE3ayBOxaARD+AKzCzpWAXSoAwh+AVdqpErArBUD4A7AOO1MCdqEACH8A1mknSsC23w74IQl/ANbrhnbgVsLbvAPwkBa/AOEPwAhbvROwrQVA+AOwCba2BGxjARD+AGySrSwB21YAhD8Am2jrSsA2FYD9A/6eMHoQADiHrSoB21IAhD8A22BrSsA2FADhD8A22YoSsOkFQPgDsI3eWX1ZG1wCNrkACH8AttlGl4BNLQDCH4BdsLElYBMLwEOqt1ZfMHoQAFiCjSwBm1YAhD8Au2jjSsAmFQDhD8Au26gSsCkFQPgDMIONKQGbcDvgT0/4AzCH61sc5D78VsKjdwA+vcUDIfwBmMnwnYCRBUD4AzCzoSVgVAEQ/gAwsASMOAZA+APAwv4xAQ9Z9zde9w6A8AeA+3pnixsI/fG6vuE6C8D+0f6fv8bvCQDbYq0lYF0FQPgDwMWtrQSsowAIfwA4uLWUgFUXAOEPAIe38hKwyrMArkn4A8BRXF/d1ArPDljVDsA1LY72F/4AcHQr2wlYRQEQ/gCwPCspAcsuAMIfAJZv6SVgmQVA+APA6iy1BCyrAAh/AFi9d7W4d8CxS8AyCsCDq7fl8r4AsA43V8+u7jzOFznuaYBXVTcm/AFgXW6o3lhdcZwvcpwC8IDq9dUTjzMAAHBoT65eV1121C9w1ALwadXPV0876jcGAI7lGdVrq0uP8o+PUgAuqf5bi4MQAIBxvqJ6ZXW/w/7Dw/6DE9XLq+cf9hsBACvx+Oozql84zD86bAF4cfWth/w3AMBq3dDieICbDvoPDlMAvqP614ccCABYjy+p/qT69YN88kGvA/B11c8e4vMBgPX7VIvM/vmLfeJBAv2J1f/oGKcaAABr8/9anKX3rgt90sUKwLXVO6pHLGkoAGD1bq2+qPqj833ChU4DPFn9VMIfALbNI6v/2gVy/kIHAX5P9aJlTwQArMXnVJ9s8Tb+fZzvLYAvqn6tI1xYAADYGHdXX1z95tn/w7kKwKUt7jT0+BUPBQCs3rurL6z+8vQPnusV/ndW37COiQCAlbu2xZkBv3L6B8/eAXhYdUuLO/0BALvhz6pHV7ftf+DsHYAfqp66zokAgJW7tLq8esP+B07fAfiM6v92xNsKAgAb7ZPVo6oP1ZnnB/7jhD8A7KpLW2R9de8OwKXVh6uHjJgIAFiLj1YPr/5yfwfgKxP+ALDrrqm+qu59C+B542YBANbo79XiLYATLU4LuHboOADAOny0uu5k9TcS/gAwi2uqx59scd1/AGAeTz5ZPWH0FADAWn3ByRaXBgQA5vHoky2uAAgAzOMRJ6uHjp4CAFira0+2uDkAADCPK09Ud3ffuwICALvrUyc7846AAMDuO3Wyxe0BAYB5fOJkddfoKQCAtbrzZPWR0VMAAGv1kZPV742eAgBYq1tPVreMngIAWKtbTla/NXoKAGCt3n2y+vXRUwAAa/VrJ1pcB+D2FvcHBgB2223VXz9ZnapuHDwMALAeN1ad3PsvPzdwEABgfV5b914G+LIWWwJXDhsHAFi1O6qHVR/f3wH4i+qV4+YBANbgldXH68wbAT2++t9DxgEAVu1U9bjq/XXvMQBV76l+ccREAMDKvba98K/73gr4huo3z/FxAGB7faq6vvrt/Q+cPOsTbq5+Yp0TAQAr97JOC/869yv9a6r3VQ9ex0QAwEr9UfW51R+f/sGzdwCqPlr9k3VMBACs3D/qrPCvut95Pvnd1aOqJ6xyIgBgpV5W/eC5/ocLHex3WfUrLQ4MBAC2yzuqp7d33v/ZLna0/8OrX60eseShAIDVubV6SvWH5/uEcx0DcLoPVV/e4m6BAMDmu616ThcI/7p4Aai6pXpG9ftLGAoAWJ1bW2z7/87FPvEgBaAWJeApLa4TAABsnne0yOr/c5BPPmgBqMXbAU+r/ssRhgIAVufHWrzyv+C2/+kOUwBqcdfAF1T/oPqTQ/5bAGC5/qj6+uqbO8/R/udzvusAXMxvVz/e4qqBT8i9AwBgnT7V4hz/v1v9xlG+wGF3AE730eqF1RNzF0EAWIdT1c+3uEbPN7fYATiSZb5y/7zqn1bfUF25xK8LALO7q3pl9R+q9y7jC65i6/7y6qurv9PiPMRrV/A9AGDX3V7dWP1c9UstjsNbmlW/d3+iemz1xdXnV4+uPrPFsQNXV5/W0Y9DAIBtdk/1ierOFm+r39ri/P3frv5X9f4WW/4r4eC9FT64AGy0qTPwOAcBAgBbSgEAgAkpAAAwIQUAACakAADAhBQAAJiQAgAAE1IAAGBCCgAATEgBAIAJKQAAMCEFAAAmpAAAwIQUAACYkAIAABNSAABgQgoAAExIAQCACSkAADAhBQAAJqQAAMCEFAAAmJACAAATUgAAYEIKAABMSAEAgAkpAAAwIQUAACakAADAhBQAAJiQAgAAE7pk9ACw4z5Uvb16Z/We6oPV7dWd1Sere4ZNthnuV11aPai6rvqs6vHV9dVTq4cNmwx23InRA2yAU6MHYOf8avWq6vXVLYNn2XaPrb62el715MGzsHumzsCpf/g9CgDL8LHqpdVLEvqr8tjqW6t/WF0xeBZ2w9QZOPUPv0cB4Djuql5c/UiLEsDqXV19W/UdKQIcz9QZOPUPv0cB4ChOtXjF/y+rjw6eZVbXVT9QvTB/yziaqf9/M/UPv0cB4LA+UL2g+u+D52DhWdWPV48cPQhbZ+oMdBogHM7PVE9I+G+St7X4nbxm9CCwTRQAOJhT1XdXX1/96eBZuK+7qudW35NdPTiQqbc/9vhjwcXcXX1T9VOjB+FAvrHFWwKuc8LFTJ2BU//wexQALuTu6vnVa0cPwqE8t/rplAAubOoM9BYAnN+pFq/8hf/2eXWLswMUfDgPBQDO719k23+b/WSLYwKAc5h6+2OPVwicy8+0OOCP7ffq6utGD8FGmjoDp/7h9ygAnO13W9yMxtH+u+Gq6l25TgD3NXUGegsAznSqxXvHwn933JXjAeA+FAA400tzkZ9d9Lbq5aOHgE0y9fbHHq8K2HdX9ehc239XXVf9Tm4gxL2mzkA7AHCvFyf8d9nt1Q+PHgI2xdTtZ48dAGpxK99H5Ja+u+7q6veyC8DC1BloBwAWXprwn8Gd1ctGDwGbYOr2s8cOAFWPafH+MLvvcdV7Rg/BRpg6A+0AQP1qwn8m761+Y/QQMJoCAPWq0QOwdn7nTE8BgHr96AFYuzeMHgBGm/r9jz2OAZjbh6rPGD0EQ9zW4toAzGvqDLQDwOzePnoAhvmV0QPASAoAs3vn6AEY5l2jB4CRFABm53SwefndMzUFgNl9cPQADPOB0QPASAoAs7t99AAM43fP1BQAZnfn6AEY5o7RA8BICgCz++ToARjm46MHgJGmPgdyj+sAzM1zYG6e/3Ob+vlvBwAAJqQAAMCEFAAAmJACAAATUgAAYEIKAABMSAEAgAkpAAAwIQUAACakAADAhBQAAJiQAgAAE1IAAGBCCgAATEgBAIAJKQAAMCEFAAAmpAAAwIQUAACYkAIAABNSAABgQgoAAExIAQCACSkAADAhBQAAJqQAAMCEFAAAmJACAAATUgAAYEIKAABMSAEAgAkpAAAwIQUAACakAADAhBQAAJiQAgAAE1IAAGBCCgAATEgBAIAJKQAAMCEFAAAmpAAAwIQUAACYkAIAABNSAABgQgoAAExIAQCACSkAADAhBQAAJqQAAMCEFAAAmJACAAATUgAAYEIKAABMSAEAgAkpAAAwIQUAACakAADAhBQAAJiQAgAAE1IAAGBCCgAATEgBAIAJKQAAMCEFAAAmpAAAwIQUAACYkAIAABNSAABgQgoAAExIAQCACSkAADAhBQAAJqQAAMCEFAAAmJACAAATUgAAYEIKAABMSAEAgAkpAAAwIQUAACakAADAhBQAAJiQAgAAE1IAAGBCCgAATEgBAIAJKQAAMCEFAAAmpAAAwIQUAACYkAIAABNSAABgQgoAAExIAQCACSkAADAhBQAAJqQAAMCEFAAAmJACAAATUgAAYEIKAABMSAEAgAkpAAAwIQUAACakAADAhBQAAJiQAgAAE1IAAGBCCgAATEgBAIAJKQAAMCEFAAAmpAAAwIQUAACYkAIAABNSAABgQgoAAExIAQCACSkAADAhBQAAJqQAAMCEFAAAmJACAAATUgAAYEIKAABMSAEAgAkpAPWp0QMAsHb3jB5gNAWgPjF6AADW7uOjBxhNAag7Rw8AwNrdMXqA0RSAum30AACs3e2jBxhNAagPjh4AgLX7wOgBRlMA6r2jBwBg7ab/268A1M2jBwBg7ab/239i9AAb4GHVh0YPwTCeA3M7NXoAhnlokx8HYAegPly9f/QQAKzNu5s8/EsB2Pe60QMAsDZvGD3AJlAAFl41egAA1sbf/Lz/ebr3VY8dPQRr5zkwN8cAzOc91eeNHmIT2AG4138aPQAAK/eS0QNsCq9+7nVF9XvV1aMHYa08B+ZmB2Aud1SfWf3Z6EE2gR2Ae/1p9cOjhwBgZV6c8P8rXv2c6crqd6prRw/C2ngOzM0OwDz+sHpMCsBfsQNwpo9V3z16CACW7rsS/mfw6ue+TlRvqZ41ehDWwnNgbnYA5nBT9ZzRQ2waf/zO7ZHVu6qrRg/CynkOzE0B2H13VF9Q/cHoQTaNtwDO7dbqRaOHAOBYTlUvSPifkwJwfq+pvn/0EAAc2fdVvzB6iE1l+/PCTlQ/UX3j6EFYGc+BuXkLYHe9vHrh6CE2mT9+F3dJ9dPVc0cPwkp4DsxNAdhNr6q+obpn9CCbzFsAF3d39fernxw9CAAX9fKE/4EoAAdzd/VN1b8dPQgA53Sq+t4W2/7C/wBsfx7ec6sfyymCu8JzYG7eAtgNd7Q42t8Bf4dgB+DwXl09oXrb6EEA6KYW5/kL/0NSAI7m1urLWlwr4PbBswDM6A9bvDX7nJznfyS2P4/viurb95ZbCW8fz4G5eQtg+9zR4q5+P5Jr+x+LP37Lc0WLHYFvrT538CwcnOfA3BSA7fGe6iXVyxL8S+GP32o8qXpe9TXV4wfPwoV5DsxNAdhs767e0OK8/ncMnmXn+OO3etdVT6uurx5Xffbexx5U3b+637jRyHNgdgrAWPdUH2+xrX979YHqvdXN1dtzjNVK/X9cKESxkmG4qwAAAABJRU5ErkJggg==;fontColor=#666666;" vertex="1" parent="1">
          <mxGeometry x="39" y="74" width="22" height="22" as="geometry"/>
        </mxCell>
        <mxCell id="SSu6BVQOUmVmRUGiHWDf-52" value="" style="whiteSpace=wrap;html=1;aspect=fixed;rounded=0;strokeColor=#666666;strokeWidth=1;fillColor=#FFFFFF;" vertex="1" parent="1">
          <mxGeometry x="35" y="110" width="30" height="30" as="geometry"/>
        </mxCell>
        <mxCell id="SSu6BVQOUmVmRUGiHWDf-53" value="" style="whiteSpace=wrap;html=1;aspect=fixed;rounded=0;strokeColor=#666666;strokeWidth=1;fillColor=#FFFFFF;" vertex="1" parent="1">
          <mxGeometry x="35" y="150" width="30" height="30" as="geometry"/>
        </mxCell>
        <mxCell id="SSu6BVQOUmVmRUGiHWDf-54" value="" style="whiteSpace=wrap;html=1;aspect=fixed;rounded=0;strokeColor=#666666;strokeWidth=1;fillColor=#FFFFFF;" vertex="1" parent="1">
          <mxGeometry x="35" y="190" width="30" height="30" as="geometry"/>
        </mxCell>
        <mxCell id="SSu6BVQOUmVmRUGiHWDf-56" value="" style="shape=image;imageAspect=0;aspect=fixed;verticalLabelPosition=bottom;verticalAlign=top;rounded=0;strokeColor=#666666;strokeWidth=1;fillColor=#FFFFFF;image=data:image/png,iVBORw0KGgoAAAANSUhEUgAAAgAAAAIACAMAAADDpiTIAAAC/VBMVEUAAAAAAAAAAAAAAAAAAAAAAAAAAAAAAAAAAAAAAAAAAAAAAAAAAAAAAAAAAAAAAAAAAAAAAAAAAAAAAAAAAAAAAAAAAAAAAAAAAAAAAAAAAAAAAAAAAAAAAAAAAAAAAAAAAAAAAAAAAAAAAAAAAAAAAAAAAAAAAAAAAAAAAAAAAAAAAAAAAAAAAAAAAAAAAAAAAAAAAAAAAAAAAAAAAAAAAAAAAAAAAAAAAAAAAAAAAAAAAAAAAAAAAAAAAAAAAAAAAAAAAAAAAAAAAAAAAAAAAAAAAAAAAAAAAAAAAAAAAAAAAAAAAAAAAAAAAAAAAAAAAAAAAAAAAAAAAAAAAAAAAAAAAAAAAAAAAAAAAAAAAAAAAAAAAAAAAAAAAAAAAAAAAAAAAAAAAAAAAAAAAAAAAAAAAAAAAAAAAAAAAAAAAAAAAAAAAAAAAAAAAAAAAAAAAAAAAAAAAAAAAAAAAAAAAAAAAAAAAAAAAAAAAAAAAAAAAAAAAAAAAAAAAAAAAAAAAAAAAAAAAAAAAAAAAAAAAAAAAAAAAAAAAAAAAAAAAAAAAAAAAAAAAAAAAAAAAAAAAAAAAAAAAAAAAAAAAAAAAAAAAAAAAAAAAAAAAAAAAAAAAAAAAAAAAAAAAAAAAAAAAAAAAAAAAAAAAAAAAAAAAAAAAAAAAAAAAAAAAAAAAAAAAAAAAAAAAAAAAAAAAAAAAAAAAAAAAAAAAAAAAAAAAAAAAAAAAAAAAAAAAAAAAAAAAAAAAAAAAAAAAAAAAAAAAAAAAAAAAAAAAAAAAAAAAAAAAAAAAAAAAAAAAAAAAAAAAAAAAAAAAAAAAAAAAAAAAAAAAAAAAAAAAAAAAAAAAAAAAAAAAAAAAAAAAAAAAAAAAAAAAAAAAAAAAAAAAAAAAAAAAAAAAAAAAAAAAAAAAAAAAAAAAAAAAAAAAAAAAAAAAAAAAAAAAAAAAAAAAAAAAAAAAAAAAAAAAAAAAAAAAAAAAAAAAAAAAAAAAAAAAAAAAAAAAAAAAAAAAADmnzsbAAAA/nRSTlMAAQIDBAUGBwgJCgsMDQ4PEBESExQVFhcYGRobHB0eHyAhIiMkJSYnKCkqKywtLi8wMTIzNDU2Nzg5Ojs8PT4/QEFCQ0RFRkdISUpLTE1OT1BRUlNUVVZXWFlaW1xdXl9gYWNkZWZnaGlqa2xtbm9wcXJzdHV2d3h5ent8fX5/gIGCg4SFhoeIiYqLjI2Oj5CRkpOUlZaXmJmam5ydnp+goaKjpKWmp6ipqqusra6vsLGys7S1tre4ubq7vL2+v8DBwsPExcbHyMnKy8zNzs/Q0dLT1NXW19jZ2tvc3d7f4OHi4+Tl5ufo6err7O3u7/Dx8vP09fb3+Pn6+/z9/izPbK0AAA6HSURBVBgZ7cEJuJZjwgfw//O+71nrdE57aSKhppAPMbZMamyRUpZmS7amJI0lu+KT+cqSLVkyGNEMkZQWX4tD9hCOpVCRSufoNIdTp7O87/8al8vnEy1nee/nue/n+f9+EBERERERERERERERERERERERERERERERERERERERERERERERERERERERERERERERERERERERERERERERERERkfBJdOh51ujxU2YUFq1aW1JWkUxuKV2/+uN3C5+cNGbYwB7tY7BcosPRgy6+5aGZS95fuaF8aw2TFWUla1cWFT49Zfzos367RwKyI617j5pS+HkNd6qiaMaE83s2hYVa9r7g7gWrarhTNasLp1zUuxVkG21OnbComHXw6b9G9yqANVqcdMNza1kHxQvH928N+Y7XafjUlayX5fee0QpB8zoOefAT1stnjw7bx0Ok5Q+4bxUb5L07+uUhMPkD7l3JBlk5uX8TRFTbC16oYRpUPnduKwRgz1ELq5kG1YuGtUbktB1RmGLaJF+8uAN81fHyt5g+ycXD2yBCsk6fl2K6FQ5pDJ+0GP4K0y353IBMRMO+t5XQiPKHfxuDcfETplfRiOJbuiD04v0LadDK0U1hVKurv6BBi/vGEGaNR3xKwzbf82sY0/3RShq2YlgjhFXzcZvohznHeTAgdtJi+qH0hqYIo2Y3fkO/LDvVQ5rFB71Pv5SNLUDYFFxfRj+9099DGsUHr6CfNl2XjzDJuHAj/fZ2Pw9pEjvjI/qtZFgCYeH1+YhBeP0IpEXvtxmEouMQDl3mMSjT9kCDdZ3DoMzuBPdlXV/F4FSMy0ODFNxew+BsvSYTjuvxMYO1/o8e6s0bUsxgFR0Ol+Xfx+DN64B66lLIwKXuzoOzeqymDTaPiqMeMsdU0QafHQ43ZY5L0hJvdEOdHfweLVEzNgEHdV5Ke1RfEUedZIytoT1e2xvOObOcVln8K9RB5zdolW8GwC0ZE2mb0oGoLe/szbTN+AQc0uZFWuiBRqiVvKm00KJWcMZv1tFKH+yDWuj6Ma305cFwxIAKWurffbBLg8ppqc194QLvkhStlbraw07Fb6G9khfCfol7aLWn8rATBXNptYlxWC5rBi1XtDt2qONHtNwTmbBa7nxab2037MBhxbTe7BxYrMmLdEDZMdiu/hV0wKLGsFaz1+mEykHYjnOSdMIrBbBU/lK64q/4hdF0xet5sFKjl+mOq7At70a6ozAXFspeQJdcg5/ybqNL5mbBOpmz6Jbr8P+8O+mWpxOwjPcIXTMW/8e7la55wINdxtA9Y/CDcXTPFbDKYLpoGL53GV10JizSs4ouSp2G75xDJ209EtbYaxPdVNkTODlJN5XsAUvkvktXlR3QfTNd9WY2rOA9Snet/4ruuh9WuIASkHNggcOqKAHZehAC12QlJTDLGyFoD1MCNBkBO50SqL4IVLtSSqCKWyNA3jxKwGZ6CM6fKIEbiMC0KKEEbn0BgvIPigXuRUCOpVjhKAQicwXFCu8nEIRRFEsMRQCab6JYojgf/ruLYo0J8F3XGoo1qvaG356mWOQx+Oy/KDZJdYG/nqFYZRp8dTDFLql94adZFMs8AR/tT7FNqhP883eKdSbBN20qKdbZ0gx+uZ5ioavgk5wSioXWZ8EfQyhW+gP8sYRipYXwRReKpTrCDzdTLPXf8EHGBoqlvozDvP4Ua50I8/5JsdZDMC6nnGKtTZkwbQDFYifCtGkUi/0dhuWUUyxWmgGzTqJYrRfMupNitfEwaznFastgVAeK5drApKEUyw2GSU9RLDcVBnkbKJZbDYM6UqzXDub8iWK902DOJIr1boM571Cs9yqMyU1SrFeVCVMOpjhgP5gyhOKA38OUWykOuAmmzKc44FmYso7igFUwpAnFCTkwoxvFCZ1hxikUJxwPM0ZSnDAUZtxKccJNMOMpihMehxmvUZxQCDM+oTihCGaUUpywHkbEUxQnVHkwoTnFEXkwoRPFER1gQneKIw6ACUdSHHEITDiG4ogjYcLxFEf0ggl9KY44ASYMpDjiFJhwJsURA2DCqRRHnAQT+lAc8TuY0JviiB4w4SiKIw6BCd0pjugGE/anOKIzTOhEcUQHmNCS4ogmMCGepDhhqwcjNlCc8AXMKKI44S2YsYjihLkw458UJzwCM+6kOOFmmHElxQkXw4zTKU44BWYcSHFCV5jRhOKCVDYM2UBxwOcwZQnFAQthysMUB9wLU66mOOBSmHISxQG/gyltKQ5oBmPWUay3EubMolhvOswZS7HelTDnFIr1joM57SjWawGDVlMstxwmPUSx3GSYNJhiuTNgUnuK5VrBqE8oViuCWfdTrHYnzPo9xWqnwqyWKYrFqgtg2BKKxRbAtEspFhsB0/ahWGx3GPcBxVpvwbybKNa6DuYdSrFWN5gXW0Ox1KcefPA3iqXGwg9dKZbaC75YSrHSEvhjJMVKQ+GPVtUUC1U2hU9mUSw0HX45jWKhvvBLxjqKdT6PwzdjKNa5Av5pW02xTGVL+GgaxTKPwE9HUSxzKPzkLaNY5Q3461yKVc6Cv7LXUyyyJhM+G02xyEXwW5NNFGt83Qi+u5FijWvgv5ZbKJb4tikCcCfFEhMQhN2rKVbY2haBmEyxwkQEY7cKigW+bYmATKBY4AYEpXkZJXAb8xGYaymBuwzBySumBGxtDgI0ihKwvyBIWZ9SAvVhBgLVjxKo4xEsbwElQLMRtP2SlMBUd0LgJlECcyuC17yUEpDiAlhgJCUg58MGGe9RArE0DiscnqIEIHkQLHEPJQATYYuC9RTfrcmDNc6k+K4/7OHNpfjsGdikYwXFV+XtYZXLKL4aCbvEX6X4qDAGy3SuoPimvCOsczHFN8Nhn/gSik8WxmChfbZQfPFtB1hpJMUX58NOscUUH8z3YKn2pRTjStrCWqdRjDsZFnuQYtgk2KzxCopRH+TAat2rKQZVdoPlLqcYNAq2iy2kGDM3Buu1+YpiyJct4YBjkhQjao6EE66mGHEp3BCbRzHgWQ+OaPElJe1WNYUzjqimpFnVIXDIJZQ0uxAu8Z6gpNVUD05p/D4ljd7JhWP23kRJm687wDknpChpkuwNB11JSZNL4CJvOiUtpnlwUuMiShq82wiO2nsjpcFK9oSzjqmmNFDVUXDYeZQGGgKnTaQ0yHi4LTGH0gAz43Bc/geUens3D87r+DWlnjbsgRA4upJSL1sPRyj8gVIfqdMQEldR6uEShIX3AKXO7vIQGhnzKHU0M44QyVtGqZM3GyFU2q2h1MGq1giZ/csotbapC0KnVyWlliqOQgidkaLUSrIfQmkEpVbORUiNo9TCtQgr70HKLk3yEFqJWZRdmB5HiOW+QtmpF7IRas2KKDuxLB8ht9tKyg6taI3Q67iOsgNrdkcE7FdK2a6SXyMSflNO2Y6ygxARvSspv1BxNCKjfw3lZ6r7IEIGU7aVGoRIGU7ZxjmImEsoP3EhIudayo9GI3q8v1F+MAZR5N1B+d54D5Hk3U/5zl0eIir+KIVTYoisxJOMvKlxRFjG04y4aQlEWuZMRtoTCURc1mxG2FMZiLysOYysZzIhyJ7PiJqVCflOzv8ykp7LgnwvdyEjaF425AeNFjNyns+B/Ch3ISNmXg7kJ3IXMFLmZkO2kfM8I+S5bMjP5MxnZMzOgvxC9lxGxLNZkO3InsNIeCYTsl1ZsxkBMzIhO5A1k6E3PROyQ5nTGXKPJyA7kXiMofZwHLJT8YcYYvfHILsQu4+hdVcMskveXQypWzxILXi3MJTGeZBa8W5kCF3nQWrrGobO5ZA6+CtDZgSkToamGCLJsyF19OckQ6NmEKTOBlYxJCr7Qeqhz1aGwpbjIPXSq5wh8E0PSD0dUUbnlR4KqbeDvqbjNhwAaYCua+m0LzpBGmTPlXTYit0hDdTuQzrrvdaQBmuxlI56rRkkDfJfopMW5UHSIncuHfRsNiRNMqfTOY9nQNIm8RAdc18ckkaxiXTK/3iQtPKuo0Muh6TdSLoiNRRiwOAaOqH6TIgR/SrpgC0nQgzp9S2tV9YDYsyhG2m54gMhBu27llb7ojPEqD0/ocU+ag8xrPUyWuvNFhDjCl6ipRbmQXyQO5tWejob4ouMR2mhKQmIT2J30DoTPIhvvGtpmdEQXw1P0SLJcyE+G1RNa1QOhPju+M20xLe9IAE4bCOtUHwwJBBdv6QFVneCBGSP5QxcUTtIYFq+yYC90gwSoLwFDNScRpBAZT3JAE3NgAQsPpmBuT0GCZx3AwNytQexwYgUA5A8D2KJQVX03dYBEGscW06ffdMTYpFDvqavvjoQYpXOn9NHn+0FsUy7IvpmWRuIdZq9TJ8U5kMslDubvpiRDbFSxsP0wQMJiKW8CTTuRg9ir0tp2IUQqw2uoUFVgyCW67OFxpQfC7He4aU0pOQQiAO6rqERqztBnND+Qxrw/m4QRzR/lWn3UlOIMxrNYZrNzIE4JOMfTKsHExCnxG5mGo3zIK65lGkzEuKgP1czLaoGQZx04mamQfmxEEcdtpENVtId4qwuX7CBVneCOOxXH7BB3tsN4rRmL7MBXiyAOC53FuttRg7EeYkHWU/3JSAh4N3EernBg4TDRay71AWQ0BhUxTqqPB0SIseWs06+6QUJle7FrIOvDoSEzD6rWGuf7QUJnbbLWEtvt4aEUP4LrJWFTSChlP0Ua+GJLEhIxSdzl+6OQ0LLG8NduMaDhNlfktyJ5HmQkBtQyR3a2h8Sej3LuAP/PhoSAQes53at6waJhD0/4XYs7wCJiFZL+QtvtIRERt7z/Jn5jSERkvk4t/FYJiRSYrfzJybGIBHjXcEfjfYg0XN2Db9XMwQSSX0r+J0tJ0Mi6ohSsvQISGTtu2ZNV0iEtW8PEREREREREREREREREREREREREREREREREREREREREREREREREREREREREREREREREREREREREREz/gNIbSIcqAEjDwAAAABJRU5ErkJggg==;" vertex="1" parent="1">
          <mxGeometry x="35" y="110" width="30" height="30" as="geometry"/>
        </mxCell>
        <mxCell id="SSu6BVQOUmVmRUGiHWDf-57" value="" style="shape=image;imageAspect=0;aspect=fixed;verticalLabelPosition=bottom;verticalAlign=top;rounded=0;strokeColor=#666666;strokeWidth=1;fillColor=#FFFFFF;image=data:image/svg+xml,PHN2ZyB4bWxucz0iaHR0cDovL3d3dy53My5vcmcvMjAwMC9zdmciIHhtbG5zOnhsaW5rPSJodHRwOi8vd3d3LnczLm9yZy8xOTk5L3hsaW5rIiB2ZXJzaW9uPSIxLjEiIGlkPSJDYXBhXzEiIHg9IjBweCIgeT0iMHB4IiB3aWR0aD0iNTEwcHgiIGhlaWdodD0iNTEwcHgiIHZpZXdCb3g9IjAgMCA1MTAgNTEwIiBzdHlsZT0iZW5hYmxlLWJhY2tncm91bmQ6bmV3IDAgMCA1MTAgNTEwOyIgeG1sOnNwYWNlPSJwcmVzZXJ2ZSI+JiN4YTs8Zz4mI3hhOwk8ZyBpZD0ibm90aWZpY2F0aW9ucy1ub25lIj4mI3hhOwkJPHBhdGggZD0iTTI1NSw1MTBjMjguMDUsMCw1MS0yMi45NSw1MS01MUgyMDRDMjA0LDQ4Ny4wNSwyMjYuOTUsNTEwLDI1NSw1MTB6IE00MjAuNzUsMzU3VjIxNi43NSAgICBjMC03OS4wNS01My41NS0xNDIuOC0xMjcuNS0xNjAuNjVWMzguMjVDMjkzLjI1LDE3Ljg1LDI3NS40LDAsMjU1LDBjLTIwLjQsMC0zOC4yNSwxNy44NS0zOC4yNSwzOC4yNVY1Ni4xICAgIGMtNzMuOTUsMTcuODUtMTI3LjUsODEuNi0xMjcuNSwxNjAuNjVWMzU3bC01MSw1MXYyNS41aDQzMy41VjQwOEw0MjAuNzUsMzU3eiBNMzY5Ljc1LDM4Mi41aC0yMjkuNVYyMTYuNzUgICAgQzE0MC4yNSwxNTMsMTkxLjI1LDEwMiwyNTUsMTAyczExNC43NSw1MSwxMTQuNzUsMTE0Ljc1VjM4Mi41eiIvPiYjeGE7CTwvZz4mI3hhOzwvZz4mI3hhOzxnPiYjeGE7PC9nPiYjeGE7PGc+JiN4YTs8L2c+JiN4YTs8Zz4mI3hhOzwvZz4mI3hhOzxnPiYjeGE7PC9nPiYjeGE7PGc+JiN4YTs8L2c+JiN4YTs8Zz4mI3hhOzwvZz4mI3hhOzxnPiYjeGE7PC9nPiYjeGE7PGc+JiN4YTs8L2c+JiN4YTs8Zz4mI3hhOzwvZz4mI3hhOzxnPiYjeGE7PC9nPiYjeGE7PGc+JiN4YTs8L2c+JiN4YTs8Zz4mI3hhOzwvZz4mI3hhOzxnPiYjeGE7PC9nPiYjeGE7PGc+JiN4YTs8L2c+JiN4YTs8Zz4mI3hhOzwvZz4mI3hhOzwvc3ZnPg==;" vertex="1" parent="1">
          <mxGeometry x="37.5" y="152.5" width="25" height="25" as="geometry"/>
        </mxCell>
        <mxCell id="SSu6BVQOUmVmRUGiHWDf-60" value="" style="shape=image;imageAspect=0;aspect=fixed;verticalLabelPosition=bottom;verticalAlign=top;rounded=0;strokeColor=#666666;strokeWidth=1;fillColor=#FFFFFF;image=data:image/png,iVBORw0KGgoAAAANSUhEUgAAAMgAAADICAYAAACtWK6eAAAABHNCSVQICAgIfAhkiAAAAAlwSFlzAAALEwAACxMBAJqcGAAACvpJREFUeJzt3X+QlVUdx/E3dxcXCARnSDEsghgaFGOGhjAtxRKFnKzJGR1LHdShDLIxTEvsjxwnw0wtobRmhH5Z1tgvm4ksMHQy1AZFnJFCdkHTnNLQAkVg4fbHdzfuLrt3773nPOc8z3k+r5kzMrD3eb7r3c/e58d5vgdERERERERERERERERERERERERERERERESkSIbFLsDRcGAm8DbgiMi1SHz7gd3AS8AzwC7XDRY1IBOAZcDFwNjItUh+7QDWA78D7gP2xCwmlAXATqCqodHE+A+wAjvaSNYC7GM09v9sjeKOfcBtwBgaUKRDrAnA08BRsQuRJLwAXIgdgg2qEqQUP5ahcIg/E4G1wDX1vqgtTC3OhgN3AyNiFyJJqQDzgHHA/QN9QVECMgu4InYRkqyTsF++6/r/Q1EOsZK+8iC58EXgsv5/WZSAVGMXIKWwAjix9i+KEpBnYxcgpTASuIuaXBQlIJuBV2IXIaUwm5pDraIEpBv4fuwipDSuw66cFuYqFsDjwCXAqNiFSPLGAVuBzUX5BAGboXkBNlVAJGsLoVhTTXqdAfwEGB+7EEnaQeDYIh1i9eoCVmOHh9PQIZdkYxiwsYifILUqwAnAJDQNRaADmIOdq472sL2VHrYhkjuTgU7cp8avDV24SChzcA9IV/CqRQJ6EreA7CzSZV6RZnU6vn60AiIpO+j4+ooCIlKHAiJSR3uG21ZTN6nlvalbCFkERE3dpBE7UFM3DY2GRlZN3e51rKvb5znIAuw3gVrzSLOOBD4DbKOJpm4h+ArIBKwtT5bnNJK+4cCVwBZgbtxSjK+AqKmb+NRQU7cQfARkOHZCLuJTG3ATdsgVjY+AzERXqyQ7VwJfjbVzHwFRUzfJ2oBN3ULwEZCqh22IDOWwpm4h+AiImrpJCIc1dQvBx87U1E1C6dPULQQfAVFTNwnp/03dQvD1cXUj8LKnbYnUMwk4P9TOfAVETd0kpIWhduTzhGctcDb6JJHsnQ4cHWJHvq8IrAWmA7egoEh2KlhIMpdl4zg1dZNaWTR1G2pZvnuBcx32ccDhtSItCdnULVfPg4g0YjvwcQ/bmeJhG0NSQCSGR7EbzC7G+ShkKAqIxOLc1M1LFUNQQCQW56ZuXqrIw05EikoBEanDV5OFMdhqT+OxY8Ngk8nEi9qmblt7/iy0HpBRwEeA+cBp2M1AScd2+jZ1eyNqNQUyGbgD+C/xm41phBmvArcDb8Uv55t4IfbR6DnIOOzW/lbgcnLU2EsyNxab0tGJzbEr1XvfSEDmYY28lqDGcGU2HFgKPI0dVpfCUAH5EnYcOiFALVIMxwHrgM/HLiSEwQIyDPgWcEOdr5HyagNuxg65kjbYD/8twOKQhUghLQW+EruILA0UkCXA50IXIoW1DLg0dhFZ6R+QWcCtMQqRQlsJzIhdRBZqA9IGrEbLpUnzojR1C6H2G1oMvCtWIVJ47yFS/9ws9QakA7g2ZiGShKBN3ULoDciFwLExC5EkTCJgU7cQegNySdQqJCULYxfgUwW7M3pK7EIkGcGauoVQAT4QuwhJSrCmbiG04+/TYxewCngM9egtmg7gJOxQ+00etvc+4KcetpMLD+H+zMBWtBRbCqZgD0u5/jwEaeoWYh8V3BtwVbErF885bkfi6wI+4WE7QZq6hVDBfYXajcATHmqRfPgz9syHiyBN3UKo4H7M2eWjEMmVQjR1C6GCe4f3qo9CJFcK0dQthGS+EZEsKCAidSggInUoICJ1KCAidSggInUoICJ1KCAidZQlIGOAN5PY46CSvZQDMgP4LvA81o3+X8Dr2HT8pSQ0HUKyk2JA2rHOkE8Ci4CJ/f5tds+/dwKfwtodiQwotYC0Az/HPiGG+t6OBu4ENgFnZlyXFFRqAbkBOKfJ18wA7gfWAMd7r0gKLaWATMWtJf98bHH7O7ATepGkAnI57gv8tPVsZxvwBexZbSmxlAJylsdtHQksB/5KYo3QpDkpBWRaBtt8O3AP8DAwJ4PtS86lEpA2su1KfzKwAfgx6t5SKqkExPWx4Ub3cQHwN+BGSrbaa1mlEpCQRmCd8J8BPoluNCZNAWndMcB3sJZH8yLXIhlRQNydCPwe+C0wPXIt4pkC4s8C7Ebjt9GNxmQoIH61A5/Gzk+uQTcaC08BycZY4CZgC3Be5FrEgQKSrcnYMgAPY4tcSsEoIGGcDDyCbjQWjgISjm40FpACEl7tjcZF6D3INb058RyDPTO/noQWvUyNAhLf+7GQJLPoTEoUkHyYjj0fLzmjgOTH+VjHFckRBSRfLo1dgPSlgOTLabELkL4UkHyZFLsA6aOqgEjK9rq+XgHJlx2xC0jMc46v36GA5MsfYxeQmPWur1dA8uWu2AUkZh3wrMPrVykg+XE39ny7+NONPbjWih8Bjysg+fAUsDh2EYn6GbCyydc8BSwBXebNgweA07FFfiQbn8UeMag28LV93g8FJJ5/YHfOzwD+HbmW1FWB67D2sb8G9g/wNZuAi+n3frh2Q5fmvQ58Hfga8FrkWsrmL8BHseX3ZgLjsfdgC/DCQC9QQMKpAj8EljHImyHB7Mb6BAxJAQnjQeAqYGPsQqQ5OgfJ1jbgY8BcFI5CUkCy8Qq2kOjxwC8j1yIOdIjl135sjcPrgZ2RaxEPFBB/7gOuBrbGLkT8UUDcbcIOpzTRMEE6B2ndi9iNvnejcCRLnyDN042+ElFAGlfFZnguA56PXIsEkkpAuoF9ZLfS7UPYeYbuZZRMSucgWVw92gaci3UbUThKKKWArPG4rVexqSEnAL/wuF0pmJQCcicDT2NuRjewApgK3IodtkmJpRSQLmzZs1b9BpiBPVyj5zMESCsgAF+m+UOiTcAHgXOwxW2kGBp5OtBZagE5gC2aubznz/W8CFyG3eh7IOO65HDOTd28VDGE1AICFoxrsRPs24FODv222QtswA6jpgKrgIMRahQPTd18FNGIquO4J1ShDjqAo0jzF0IWfoXbz0R3A/s4y3EfzXYqaUlZfmD2Ys9o6NMiP5ybuvkqpJ6yBETyx7mpm8daBqWASExOTd1CUEAktpabuoVShpN0aU6Ik/T+Zvfsd98A23sCuAgY1uo31KpUZvNK8TXd1C0EBUTypuGmbiHoHESkDgVEpI4K7pO+gp84SeZcf3EONQ+uMCq4Nx54h49CJFemOr5+t5cqcuLvuF/qnR28asnKqbj/PHQFrzpDD+L+P6QTmBK6cPHundgsW9efhz+ELjwr7dh15lMdtzMF2Az8AHiUQHP1xZsRwHuxm3EjPWxvi4dt5MZFuP/G0NCoHeeRiGHAW7BGaLoaJT4cBCYAL8UuxIcKtpjkn2IXIslYRyLhgEPXu1dHrUJS8r3YBfjUe1h1BHZpbmLEWqT4tgPTaG02by619fz3ALAHODtiLVJ8VxHoSb9Qak/M24DHgFmRapFi2wCcgl3FSkb/K1czgUew6+IijXoNm02R1P0POHSI1euf2BWID0eoRYprEXb1Kjn9AwLW5n8U9nEpMpTrgW/GLiKG24h/R1Yj32M5JXc1dsku9huhka+xH7gCAWx1JR9T4jXSGNuxiY1SYzS2sute4r9BGnHGHqx/1ShkUMcB3wB2Ev8N0wgzXgZuxiYglk6rM3g7gA8B84G52COaagCRhoPYgqjrsXUf1+C+tF1h+ZriPhILyXhgDNktxyzZ2Afswu6BbQPeiFuOiIiIiIiIiIiIiIiIiIiIiIiIiIiIiIiISGv+BwerIowwqeJCAAAAAElFTkSuQmCC;" vertex="1" parent="1">
          <mxGeometry x="37.5" y="192.5" width="25" height="25" as="geometry"/>
        </mxCell>
        <mxCell id="SSu6BVQOUmVmRUGiHWDf-61" value="&lt;b&gt;Recommended&lt;/b&gt;" style="text;html=1;strokeColor=none;fillColor=none;align=center;verticalAlign=middle;whiteSpace=wrap;rounded=0;" vertex="1" parent="1">
          <mxGeometry x="90" y="80" width="100" height="20" as="geometry"/>
        </mxCell>
      </root>
    </mxGraphModel>
  </diagram>
</mxfile>
